<svg xmlns="http://www.w3.org/2000/svg" viewBox="0 0 280 160"><defs><style>.a{fill:#06bffc;}.b{fill:#0063fc;}.c{fill:#fff;}</style></defs><title>finn</title><path class="a" d="M260.25,115.61V44.39a2.6,2.6,0,0,0-2.6-2.6H104.39a2.6,2.6,0,0,0-2.6,2.6v73.68h156a2.45,2.45,0,0,0,2.47-2.47"/><path class="b" d="M44.82,41.93H22.22a2.45,2.45,0,0,0-2.47,2.47v71.22a2.6,2.6,0,0,0,2.6,2.6H96.17V93A51.32,51.32,0,0,0,44.82,41.93"/><path class="c" d="M257.78,36.17H104.39a8.24,8.24,0,0,0-8.22,8.22V68.22a57.43,57.43,0,0,0-51.36-32H22.22A8.24,8.24,0,0,0,14,44.39v71.22a8.24,8.24,0,0,0,8.22,8.22H257.78a8.24,8.24,0,0,0,8.22-8.22V44.39a8.24,8.24,0,0,0-8.22-8.22m2.47,79.43a2.6,2.6,0,0,1-2.6,2.6H101.79V44.39a2.6,2.6,0,0,1,2.6-2.6H257.78a2.6,2.6,0,0,1,2.6,2.6v71.22Zm-240.5,0V44.39a2.45,2.45,0,0,1,2.47-2.47h22.6A51.32,51.32,0,0,1,96,93.15v25.06H22.22a2.67,2.67,0,0,1-2.47-2.6"/><path class="c" d="M164.79,65.07H159a1.58,1.58,0,0,0-1.64,1.64V93.15A1.58,1.58,0,0,0,159,94.79h5.75a1.58,1.58,0,0,0,1.64-1.64V66.72a1.77,1.77,0,0,0-1.64-1.64m-16.43,0H127.67A1.58,1.58,0,0,0,126,66.72V93.15a1.58,1.58,0,0,0,1.64,1.64h5.75a1.58,1.58,0,0,0,1.64-1.64V87.67h10.55A1.58,1.58,0,0,0,147.26,86V81.64A1.58,1.58,0,0,0,145.62,80H135.07V73.29h13.28A1.58,1.58,0,0,0,150,71.65V66.58a1.76,1.76,0,0,0-1.64-1.51m86,0h-5.75A1.58,1.58,0,0,0,227,66.72v13l-9-13.7a2.34,2.34,0,0,0-1.78-1h-4.38a1.58,1.58,0,0,0-1.64,1.64V93.15a1.58,1.58,0,0,0,1.64,1.64h5.75a1.58,1.58,0,0,0,1.64-1.64V80.27l8.9,13.42a2.34,2.34,0,0,0,1.78,1h4.66A1.58,1.58,0,0,0,236.14,93V66.72a1.9,1.9,0,0,0-1.78-1.64m-34.79,0h-5.75a1.58,1.58,0,0,0-1.64,1.64v13l-9-13.7a2.34,2.34,0,0,0-1.78-1H177a1.58,1.58,0,0,0-1.64,1.64V93.15A1.58,1.58,0,0,0,177,94.79h5.75a1.58,1.58,0,0,0,1.64-1.64V80.27l8.9,13.42a2.34,2.34,0,0,0,1.78,1h4.66A1.58,1.58,0,0,0,201.36,93V66.72a1.9,1.9,0,0,0-1.78-1.64"/></svg>